<svg width="214" height="32" viewBox="0 0 214 32" fill="none" xmlns="http://www.w3.org/2000/svg">
    <path d="M12.717 27.25v-3.835c0-2.892-.357-3.738-1.462-6.142L5.47 4.663H1.375l7.41 16.12v6.467h3.932Zm2.568-11.668 4.81-10.92h-3.997l-4.81 10.92h3.997Zm41.08 11.993c1.82 0 3.315-.845 4.355-2.438l.195 2.113h3.575V4.663h-3.867v8.157c-.975-1.463-2.405-2.242-4.095-2.242-3.738 0-6.338 3.152-6.338 8.612 0 5.395 2.535 8.385 6.175 8.385Zm23.758-1.43v-3.152c-1.203.812-3.218 1.527-5.103 1.527-2.828 0-3.9-1.332-4.063-4.063h9.328V18.41c0-5.688-2.502-7.832-6.37-7.832-4.713 0-6.955 3.607-6.955 8.547 0 5.688 2.795 8.45 7.735 8.45 2.47 0 4.29-.65 5.428-1.43ZM31.47 16.102c0-3.965-2.015-5.46-6.11-5.46-2.535 0-4.582 1.073-5.752 1.918v3.348c1.235-1.008 3.12-2.178 5.297-2.178 1.852 0 2.697.65 2.697 2.405v1.04h-.617c-5.915 0-8.547 1.918-8.547 5.33 0 3.152 2.015 4.973 5.005 4.973 2.274 0 3.25-.748 3.997-1.528h.162c.033.422.163.975.293 1.3h3.77a41.145 41.145 0 0 1-.195-3.997v-7.15Zm7.02-.585c.715-.877 1.852-1.624 3.25-1.624 1.365 0 1.982.584 1.982 1.82V27.25h3.868V15.322c0-3.25-1.3-4.68-4.453-4.68-2.307 0-3.672.846-4.452 1.626h-.195l-.098-1.366h-3.77V27.25h3.868V15.518ZM92.017 27.25h4.356l-5.33-8.418 4.614-7.93H91.79l-2.795 4.94-3.12-4.94H81.52l4.94 7.833-5.135 8.515h3.932l3.283-5.525 3.477 5.525ZM57.503 13.633c2.08 0 3.12 1.657 3.12 5.427 0 3.803-1.105 5.46-3.283 5.46-2.113 0-3.153-1.625-3.153-5.33 0-3.868 1.105-5.558 3.316-5.558Zm16.347 0c1.918 0 2.503 1.592 2.503 3.64v.325h-5.395c.097-2.6 1.04-3.965 2.892-3.965ZM27.603 23.35c-.488.715-1.398 1.3-2.763 1.3-1.625 0-2.438-.942-2.438-2.372 0-1.886 1.333-2.535 4.648-2.535h.552v3.607Z" fill="#262626"/>
    <g clip-path="url(#clip0_1154_12732)">
        <path d="M107.5 16c0-5.523 4.477-10 10-10s10 4.477 10 10-4.477 10-10 10-10-4.477-10-10Z" fill="#fff"/>
        <path d="M117.5 31c-3.728-.09-5.203-2.582-5.653-4.988-.245-1.308-.138-3.483 0-4.26.223-1.265.583-3.084.982-5.194.57-3.024 2.084-4.744 5.353-5.358l5.346-1.02c.142-.794.41-2.896.166-4.191-.455-2.433-2.329-4.95-6.134-4.989-8.287 0-15.06 6.713-15.06 15 0 8.287 6.713 15 15 15Z" fill="url(#paint0_linear_1154_12732)"/>
        <path d="M117.5 1c3.727.09 5.572 2.587 6.022 4.993.245 1.308-.231 3.479-.369 4.255-.223 1.265-.583 3.084-.982 5.194-.57 3.024-2.085 4.744-5.353 5.358l-4.975.977c-.142.793-.609 2.938-.365 4.233.455 2.432 2.157 4.951 5.962 4.99 8.287 0 15.06-6.713 15.06-15 0-8.287-6.713-15-15-15Z" fill="url(#paint1_linear_1154_12732)"/>
    </g>
    <path d="M147.445 27.575c2.437 0 4.095-.877 5.102-1.56v-3.152c-1.3.942-2.73 1.657-4.81 1.657-3.575 0-5.265-2.892-5.265-8.547 0-5.818 1.625-8.58 5.46-8.58 1.788 0 3.445.78 4.615 1.527V5.767c-1.04-.747-2.73-1.43-4.81-1.43-6.012 0-9.262 4.42-9.262 11.636 0 7.41 3.38 11.602 8.97 11.602ZM159.02 4.662h-3.867V27.25h3.867V4.662Zm9.807 5.916c-4.257 0-7.215 3.022-7.215 8.515 0 5.46 2.958 8.482 7.215 8.482 4.258 0 7.215-3.023 7.215-8.515 0-5.46-2.957-8.482-7.215-8.482Zm0 13.942c-2.145 0-3.217-1.657-3.217-5.427 0-3.803 1.072-5.46 3.217-5.46s3.218 1.657 3.218 5.427c0 3.803-1.073 5.46-3.218 5.46Zm18.75-1.885c-.715.877-1.853 1.625-3.25 1.625-1.365 0-1.983-.585-1.983-1.82V10.902h-3.867V22.83c0 3.25 1.3 4.68 4.452 4.68 2.308 0 3.673-.845 4.453-1.625h.195l.097 1.365h3.77V10.902h-3.867v11.733Zm12.647 4.94c1.82 0 3.315-.845 4.355-2.438l.195 2.113h3.575V4.662h-3.868v8.158c-.975-1.463-2.405-2.242-4.095-2.242-3.737 0-6.337 3.152-6.337 8.612 0 5.395 2.535 8.385 6.175 8.385Zm1.137-13.942c2.08 0 3.12 1.657 3.12 5.427 0 3.803-1.105 5.46-3.282 5.46-2.113 0-3.153-1.625-3.153-5.33 0-3.868 1.105-5.558 3.315-5.558Z" fill="#262626"/>
    <defs>
        <linearGradient id="paint0_linear_1154_12732" x1="102.5" y1="31" x2="126.108" y2="2.681" gradientUnits="userSpaceOnUse">
            <stop stop-color="#D2DFFF"/>
            <stop offset="1" stop-color="#4E7FFF"/>
        </linearGradient>
        <linearGradient id="paint1_linear_1154_12732" x1="132.5" y1="1" x2="108.522" y2="28.482" gradientUnits="userSpaceOnUse">
            <stop stop-color="#D2DFFF"/>
            <stop offset="1" stop-color="#4E7FFF"/>
        </linearGradient>
    </defs>
</svg>
